# xmcd
#
# Track frame offsets:
# 150
# 14300
# 21013
# 41337
# 56803
# 73792
# 90728
# 101752
# 125199
# 136373
#
# Disc length: 2032 seconds
#
# Revision: 0
# Processed by: cddbd v1.5.2PL0 Copyright (c) Steve Scherf et al.
# Submitted via: Audion 3.0.2 (http://www.panic.com/audion/)
#
DISCID=8b07ee0a
DTITLE=Jim Byrne - On these dark nights
DYEAR=1900
DGENRE=
TTITLE0=The handle's broken on my cup
TTITLE1=My weather girl
TTITLE2=The holiday song
TTITLE3=On these dark nights
TTITLE4=Come dance with me
TTITLE5=Tenderness
TTITLE6=Daddy's car
TTITLE7=Sunday morning
TTITLE8=Standing in the wings
TTITLE9=The secrets you're keeping
EXTD=
EXTT0=
EXTT1=
EXTT2=
EXTT3=
EXTT4=
EXTT5=
EXTT6=
EXTT7=
EXTT8=
EXTT9=
PLAYORDER=
